<svg id="Calque_1" data-name="Calque 1" xmlns="http://www.w3.org/2000/svg" xmlns:xlink="http://www.w3.org/1999/xlink" viewBox="0 0 48.32 5.98"><defs><style>.cls-1{fill:#1d1d1b;}.cls-2{fill:url(#Dégradé_sans_nom_6);}.cls-3{fill:url(#Dégradé_sans_nom_2);}.cls-4{fill:url(#Dégradé_sans_nom_3);}</style><linearGradient id="Dégradé_sans_nom_6" x1="37.31" y1="2840.77" x2="41" y2="2843.39" gradientTransform="matrix(-1, 0, 0, 1, 40.54, -2838.55)" gradientUnits="userSpaceOnUse"><stop offset="0" stop-color="#632030"/><stop offset="1" stop-color="#bb2030"/></linearGradient><linearGradient id="Dégradé_sans_nom_2" x1="10.91" y1="2841.05" x2="10.91" y2="2838.73" gradientTransform="translate(-3.98 -2838.55)" gradientUnits="userSpaceOnUse"><stop offset="0" stop-color="#3a3a3b"/><stop offset="1" stop-color="#bb2030"/></linearGradient><linearGradient id="Dégradé_sans_nom_3" x1="12.66" y1="2843.08" x2="7.86" y2="2839.84" gradientTransform="translate(-3.98 -2838.55)" gradientUnits="userSpaceOnUse"><stop offset="0" stop-color="#53160c"/><stop offset="0.24" stop-color="#611913"/><stop offset="0.68" stop-color="#852025"/><stop offset="1" stop-color="#a32633"/></linearGradient></defs><path class="cls-1" d="M10.6.87h1l.87,1.85A8.18,8.18,0,0,1,13,3.85a8.52,8.52,0,0,1,.46-1.13L14.32.87h1v4.2H14.5V3.37c0-.27,0-.5,0-.67s0-.35,0-.55L13.17,5.07h-.41l-1.4-2.92c0,.2,0,.38.05.55s0,.4,0,.67v1.7H10.6Z" transform="translate(0 -0.02)"/><path class="cls-1" d="M16.52,4.93A1.61,1.61,0,0,1,16,4.34a1.63,1.63,0,0,1-.2-.82A1.71,1.71,0,0,1,16,2.69a1.59,1.59,0,0,1,.58-.6,1.64,1.64,0,0,1,1.64,0,1.54,1.54,0,0,1,.56.6,1.67,1.67,0,0,1,.2.83,1.27,1.27,0,0,1,0,.28H16.59a.86.86,0,0,0,.27.46.76.76,0,0,0,.5.17.84.84,0,0,0,.45-.12.89.89,0,0,0,.31-.3l.63.47a1.42,1.42,0,0,1-.56.49,1.9,1.9,0,0,1-.83.18A1.64,1.64,0,0,1,16.52,4.93ZM18.13,3.2a.89.89,0,0,0-.28-.45.75.75,0,0,0-.5-.18.77.77,0,0,0-.49.17.8.8,0,0,0-.27.46Z" transform="translate(0 -0.02)"/><path class="cls-1" d="M19.36.88A.42.42,0,0,1,19.7.74a.45.45,0,0,1,.35.14.45.45,0,0,1,.14.33.46.46,0,0,1-.14.34.45.45,0,0,1-.35.14.46.46,0,0,1-.34-.14.45.45,0,0,1-.15-.34A.43.43,0,0,1,19.36.88ZM19.3,2h.81V5.07H19.3Z" transform="translate(0 -0.02)"/><path class="cls-1" d="M20.59.69h.81V5.07h-.81Z" transform="translate(0 -0.02)"/><path class="cls-1" d="M21.88.69h.81V5.07h-.81Z" transform="translate(0 -0.02)"/><path class="cls-1" d="M23.82,4.93a1.61,1.61,0,0,1-.57-.59,1.74,1.74,0,0,1-.2-.82,1.71,1.71,0,0,1,.21-.83,1.59,1.59,0,0,1,.58-.6,1.62,1.62,0,0,1,.82-.22,1.59,1.59,0,0,1,.82.22,1.64,1.64,0,0,1,.57.6,1.78,1.78,0,0,1,.2.83,1.27,1.27,0,0,1,0,.28H23.89a.93.93,0,0,0,.27.46.78.78,0,0,0,.5.17.84.84,0,0,0,.45-.12.89.89,0,0,0,.31-.3l.63.47a1.36,1.36,0,0,1-.56.49,1.87,1.87,0,0,1-.83.18A1.7,1.7,0,0,1,23.82,4.93ZM25.43,3.2a.89.89,0,0,0-.28-.45.75.75,0,0,0-.5-.18.77.77,0,0,0-.49.17.8.8,0,0,0-.27.46Z" transform="translate(0 -0.02)"/><path class="cls-1" d="M27.15,5a1,1,0,0,1-.42-.45,1.33,1.33,0,0,1-.16-.67V2h.81V3.66c0,.52.21.77.62.77a.63.63,0,0,0,.47-.19.82.82,0,0,0,.18-.58V2h.81V5.07h-.78V4.6a.82.82,0,0,1-.34.41,1.11,1.11,0,0,1-.58.13A1.13,1.13,0,0,1,27.15,5Z" transform="translate(0 -0.02)"/><path class="cls-1" d="M29.94,2h.79v.59A.82.82,0,0,1,31.05,2a.94.94,0,0,1,.64-.15v.76h-.11a.79.79,0,0,0-.83.83v1.6h-.81Z" transform="translate(0 -0.02)"/><path class="cls-1" d="M31.66,4.6l.54-.5a1,1,0,0,0,.74.39.48.48,0,0,0,.31-.09.29.29,0,0,0,.12-.24.24.24,0,0,0-.11-.2,1.54,1.54,0,0,0-.46-.16A1.41,1.41,0,0,1,32,3.42a.91.91,0,0,1-.19-.59.86.86,0,0,1,.31-.69A1.26,1.26,0,0,1,33,1.87a1.62,1.62,0,0,1,.66.12,1.37,1.37,0,0,1,.5.42l-.59.45A.63.63,0,0,0,33,2.53a.55.55,0,0,0-.28.06.23.23,0,0,0-.11.21.23.23,0,0,0,.08.17,1,1,0,0,0,.34.13,1.84,1.84,0,0,1,.88.42.84.84,0,0,1,.23.62.9.9,0,0,1-.15.51,1.07,1.07,0,0,1-.44.37,1.52,1.52,0,0,1-.62.13A1.67,1.67,0,0,1,31.66,4.6Z" transform="translate(0 -0.02)"/><path class="cls-1" d="M34.54.87H36a1.61,1.61,0,0,1,1,.3,1,1,0,0,1,.36.8.88.88,0,0,1-.15.53,1.12,1.12,0,0,1-.52.36,1.23,1.23,0,0,1,.7.37,1.08,1.08,0,0,1,.21.68,1,1,0,0,1-.19.61,1.16,1.16,0,0,1-.51.41,2.14,2.14,0,0,1-.79.14H34.54ZM35.88,2.6a.75.75,0,0,0,.48-.12.44.44,0,0,0,.15-.37c0-.33-.21-.49-.63-.49h-.5v1ZM36,4.31c.48,0,.71-.17.71-.53a.4.4,0,0,0-.18-.36A.88.88,0,0,0,36,3.29h-.65v1Z" transform="translate(0 -0.02)"/><path class="cls-1" d="M38,.88a.51.51,0,0,1,.7,0,.44.44,0,0,1,.13.33.45.45,0,0,1-.13.34.46.46,0,0,1-.35.14A.5.5,0,0,1,38,1.55a.48.48,0,0,1-.14-.34A.45.45,0,0,1,38,.88Zm0,1.07h.81V5.07h-.81Z" transform="translate(0 -0.02)"/><path class="cls-1" d="M39.87,4.93a1.61,1.61,0,0,1-.57-.59,1.63,1.63,0,0,1-.2-.82,1.71,1.71,0,0,1,.21-.83,1.59,1.59,0,0,1,.58-.6,1.62,1.62,0,0,1,.82-.22,1.59,1.59,0,0,1,.82.22,1.54,1.54,0,0,1,.56.6,1.68,1.68,0,0,1,.21.83,1.27,1.27,0,0,1,0,.28H39.94a.86.86,0,0,0,.27.46.76.76,0,0,0,.5.17.84.84,0,0,0,.45-.12.89.89,0,0,0,.31-.3l.63.47a1.36,1.36,0,0,1-.56.49,1.87,1.87,0,0,1-.83.18A1.67,1.67,0,0,1,39.87,4.93ZM41.48,3.2a.89.89,0,0,0-.28-.45.75.75,0,0,0-.5-.18.77.77,0,0,0-.49.17.8.8,0,0,0-.27.46Z" transform="translate(0 -0.02)"/><path class="cls-1" d="M42.65,2h.8v.46a.93.93,0,0,1,.95-.53A1.16,1.16,0,0,1,45,2a1,1,0,0,1,.42.45,1.33,1.33,0,0,1,.16.67V5.07h-.81V3.36a.82.82,0,0,0-.18-.58.64.64,0,0,0-.49-.19.59.59,0,0,0-.46.19.78.78,0,0,0-.19.58V5.07h-.81Z" transform="translate(0 -0.02)"/><path class="cls-1" d="M45.81,4.6l.55-.5a1,1,0,0,0,.73.39.53.53,0,0,0,.32-.09.3.3,0,0,0,.11-.24.24.24,0,0,0-.11-.2A1.43,1.43,0,0,0,47,3.8a1.34,1.34,0,0,1-.76-.38.92.92,0,0,1-.2-.59.86.86,0,0,1,.31-.69,1.26,1.26,0,0,1,.85-.27,1.62,1.62,0,0,1,.66.12,1.29,1.29,0,0,1,.5.42l-.59.45a.63.63,0,0,0-.55-.33.58.58,0,0,0-.28.06.25.25,0,0,0-.11.21.23.23,0,0,0,.08.17,1.08,1.08,0,0,0,.34.13,1.84,1.84,0,0,1,.88.42.84.84,0,0,1,.24.62.84.84,0,0,1-.16.51,1.07,1.07,0,0,1-.44.37,1.51,1.51,0,0,1-.61.13A1.68,1.68,0,0,1,45.81,4.6Z" transform="translate(0 -0.02)"/><polygon class="cls-2" points="0 5.98 4.31 2.72 4.27 0.02 0 3.25 0 5.98"/><polygon class="cls-3" points="7.87 0.18 6 0.18 6 1.11 7.87 2.49 7.87 0.18"/><polygon class="cls-4" points="6.41 1.64 4.25 0 2.49 1.38 8.56 5.98 8.56 3.78 8.56 3.25 6.41 1.64"/></svg>